# xmcd
#
# Track frame offsets:
#	150
#	13319
#	25431
#	38977
#	53849
#	67881
#	76327
#	87863
#	98850
#	108484
#	116072
#	125569
#	140265
#	149566
#	160883
#	170224
#	180372
#	191673
#	203558
#	218922
#
# Disc length: 3056 seconds
#
# Revision: 8
# Processed by: cddbd v1.5.2PL0 Copyright (c) Steve Scherf et al.
# Submitted via: audiograbber 1.83.01
#
DISCID=220bee14
DTITLE=Various Artist - Country Greats  [CD11)
DYEAR=1999
DGENRE=Oldies
TTITLE0=Johhny Lee - Blueberry Hill
TTITLE1=Lynn Anderson - I've Never Loved Anyone More
TTITLE2=Ferlin Husky - Baby
TTITLE3=Kenny Rogers - All Gods Lovely Children
TTITLE4=Razzy Bailey - I Hate Hate
TTITLE5=Waylon Jennings - Abeline
TTITLE6=Mickey Gilley - Breathless
TTITLE7=Patsy Cline - Hidin' Out
TTITLE8=Johnny Cash - Down The Streets To 301
TTITLE9=Jimmy Dean - I Didn't Have Time
TTITLE10=Bill Monroe - I Saw The Light
TTITLE11=David Frizzell - Country Music Affair
TTITLE12=Dolly Parton - Girl Left Alone
TTITLE13=Johhny Lee - Candy Store
TTITLE14=Jim Reeves - Dear Hearts And Gentle People
TTITLE15=Johnny Paycheck - A-11
TTITLE16=Kenny Rogers - A Poem For My Little Lady
TTITLE17=Lee Greenwood - I.O.U.
TTITLE18=Carl Perkins - 21 Inch
TTITLE19=Merle Haggard - Corrina Corrina
EXTD=
EXTT0=
EXTT1=
EXTT2=
EXTT3=
EXTT4=
EXTT5=
EXTT6=
EXTT7=
EXTT8=
EXTT9=
EXTT10=
EXTT11=
EXTT12=
EXTT13=
EXTT14=
EXTT15=
EXTT16=
EXTT17=
EXTT18=
EXTT19=
PLAYORDER=
